<?xml version="1.0" encoding="utf-8"?>
<!-- Generator: Adobe Illustrator 16.0.3, SVG Export Plug-In . SVG Version: 6.00 Build 0)  -->
<!DOCTYPE svg PUBLIC "-//W3C//DTD SVG 1.1//EN" "http://www.w3.org/Graphics/SVG/1.1/DTD/svg11.dtd">
<svg version="1.1" id="Layer_1" xmlns="http://www.w3.org/2000/svg" xmlns:xlink="http://www.w3.org/1999/xlink" x="0px" y="0px"
	 width="93px" height="93px" viewBox="0 0 93 93" enable-background="new 0 0 93 93" xml:space="preserve">
<rect x="-101" y="6.446" fill="#FE4A0D" width="81" height="80"/>
<path d="M-75.799,142.138c0,8.571-2.225,16.685-14.787,16.685c-7.328,0-12.693-3.402-14.198-10.796l9.356-2.29
	c0.262,2.225,2.355,4.057,4.58,4.057c4.776,0,4.842-5.3,4.842-8.768V111.32h10.207V142.138z"/>
<path d="M-55.118,125.061c9.814,0,17.666,6.543,17.666,16.685s-7.852,16.685-17.666,16.685s-17.666-6.543-17.666-16.685
	S-64.933,125.061-55.118,125.061z M-55.118,149.793c4.907,0,7.852-3.271,7.852-8.048s-2.944-8.048-7.852-8.048
	s-7.852,3.271-7.852,8.048S-60.025,149.793-55.118,149.793z"/>
<path d="M-16.668,135.202c-1.439-1.767-3.337-2.683-5.692-2.683c-1.636,0-3.599,0.72-3.599,2.617c0,4.711,16.554,0.72,16.554,12.824
	c0,8.113-7.852,10.469-14.656,10.469c-4.449,0-9.356-1.112-12.497-4.318l5.954-6.608c1.832,2.225,3.991,3.468,6.936,3.468
	c2.225,0,4.449-0.589,4.449-2.29c0-5.104-16.554-0.785-16.554-12.89c0-7.459,6.674-10.73,13.348-10.73
	c4.188,0,8.833,1.047,11.777,4.188L-16.668,135.202z"/>
<path d="M22.765,152.148c-3.141,3.991-8.31,6.281-13.413,6.281c-9.814,0-17.666-6.543-17.666-16.685s7.852-16.685,17.666-16.685
	c9.16,0,14.918,6.543,14.918,16.685v3.075H1.5c0.785,3.729,3.599,6.15,7.394,6.15c3.206,0,5.365-1.636,7.001-3.86L22.765,152.148z
	 M14.455,138.146c0.065-3.271-2.486-6.02-6.02-6.02c-4.318,0-6.674,2.944-6.936,6.02H14.455z"/>
<path d="M31.66,133.697h-6.478v-7.852h6.478v-5.627c0-6.936,1.767-12.824,12.432-12.824c1.963,0,3.926,0.131,5.758,0.589
	l-0.458,8.31c-1.112-0.393-2.028-0.654-3.206-0.654c-3.141,0-4.711,0.981-4.711,5.169v5.038h7.263v7.852h-7.263v23.947H31.66
	V133.697z"/>
<path d="M-99.746,226.677h17.273c8.113,0,16.946,1.701,16.946,11.777c0,5.169-3.206,8.702-7.982,10.207v0.131
	c6.085,0.785,10.142,5.3,10.142,11.319c0,9.684-9.16,12.89-17.404,12.89h-18.975V226.677z M-89.539,245.194h7.394
	c3.141,0,6.412-1.309,6.412-5.038c0-3.86-3.664-4.842-6.87-4.842h-6.936V245.194z M-89.539,264.365h9.16
	c3.206,0,6.805-1.374,6.805-5.431c0-4.384-4.907-5.104-8.244-5.104h-7.721V264.365z"/>
<path d="M-60.558,241.203h9.814v5.104h0.131c2.094-3.86,4.842-5.889,9.16-5.889c1.112,0,2.355,0.065,3.271,0.327v8.964
	c-1.374-0.393-2.748-0.654-4.188-0.654c-7.459,0-8.375,4.318-8.375,10.665v13.282h-9.814V241.203z"/>
<path d="M-20.581,240.417c9.814,0,17.666,6.543,17.666,16.685s-7.852,16.685-17.666,16.685s-17.666-6.543-17.666-16.685
	S-30.396,240.417-20.581,240.417z M-20.581,265.15c4.907,0,7.852-3.271,7.852-8.048s-2.944-8.048-7.852-8.048
	s-7.852,3.271-7.852,8.048S-25.488,265.15-20.581,265.15z"/>
<path d="M20.402,251.475c-0.981-1.374-2.813-2.421-4.842-2.421c-4.907,0-7.852,3.271-7.852,8.048s2.944,8.048,7.852,8.048
	c2.159,0,3.729-1.112,4.842-2.421l6.478,6.805c-3.075,3.141-7.59,4.253-11.319,4.253c-9.814,0-17.666-6.543-17.666-16.685
	s7.852-16.685,17.666-16.685c3.729,0,8.244,1.112,11.319,4.253L20.402,251.475z"/>
<path d="M28.447,223.537h9.814v30.229l10.861-12.563h12.039l-12.628,14.329l12.955,17.47H49.123l-10.73-16.096h-0.131v16.096h-9.814
	V223.537z"/>
<path d="M61.489,241.203h9.422v4.318h0.131c1.309-2.486,4.515-5.104,9.291-5.104c4.449,0,8.113,1.832,9.814,5.692
	c2.29-4.057,5.365-5.692,10.076-5.692c8.637,0,11.254,6.085,11.254,13.806v18.778h-9.814v-18.517c0-2.944-1.112-5.431-4.318-5.431
	c-4.515,0-5.954,3.206-5.954,7.132v16.815h-9.814v-16.815c0-2.355,0.131-7.132-4.384-7.132c-5.104,0-5.889,3.991-5.889,8.113v15.834
	h-9.814V241.203z"/>
<path d="M135.771,269.01h-0.131c-2.158,3.402-6.083,4.776-10.076,4.776c-5.953,0-11.319-3.402-11.319-9.814
	c0-10.992,13.348-11.188,21.525-11.188c0-3.468-2.879-5.692-6.281-5.692c-3.205,0-5.889,1.439-7.982,3.795l-5.234-5.365
	c3.599-3.402,8.833-5.104,14.001-5.104c11.451,0,14.525,5.823,14.525,16.423v16.161h-9.029V269.01z M133.352,259.065
	c-3.01,0-9.683,0.262-9.683,4.58c0,2.355,2.486,3.468,4.645,3.468c3.861,0,7.458-2.028,7.458-5.954v-2.094H133.352z"/>
<path d="M147.986,241.203h9.422v4.318h0.131c1.309-2.486,4.514-5.104,9.291-5.104c9.945,0,11.777,6.543,11.777,15.049v17.535h-9.814
	v-15.572c0-3.664-0.066-8.375-5.104-8.375c-5.104,0-5.889,3.991-5.889,8.113v15.834h-9.814V241.203z"/>
<path d="M181.576,241.203h9.422v4.318h0.131c1.309-2.486,4.514-5.104,9.291-5.104c9.945,0,11.777,6.543,11.777,15.049v17.535h-9.814
	v-15.572c0-3.664-0.066-8.375-5.104-8.375c-5.104,0-5.889,3.991-5.889,8.113v15.834h-9.814V241.203z"/>
<path d="M-99.746,170.293h15.441l10.665,30.229h0.131l10.73-30.229h15.376v46.324h-10.207v-35.528h-0.131l-12.17,35.528h-7.786
	l-11.712-35.528h-0.131v35.528h-10.207V170.293z"/>
<path d="M-12.467,216.948h-9.422v-4.318h-0.131c-1.309,2.486-4.515,5.104-9.291,5.104c-9.945,0-11.777-6.543-11.777-15.049v-17.535
	h9.814v15.572c0,3.664,0.065,8.375,5.104,8.375c5.104,0,5.889-3.991,5.889-8.113v-15.834h9.814V216.948z"/>
<path d="M-7.472,167.153h9.814v49.465h-9.814V167.153z"/>
<path d="M7.576,167.153h9.814v49.465H7.576V167.153z"/>
<path d="M51.59,211.122c-3.141,3.991-8.31,6.281-13.413,6.281c-9.814,0-17.666-6.543-17.666-16.685s7.852-16.685,17.666-16.685
	c9.16,0,14.918,6.543,14.918,16.685v3.075h-22.77c0.785,3.729,3.599,6.15,7.394,6.15c3.206,0,5.365-1.636,7.001-3.86L51.59,211.122z
	 M43.28,197.12c0.065-3.271-2.486-6.02-6.02-6.02c-4.318,0-6.674,2.944-6.936,6.02H43.28z"/>
<path d="M57.083,184.819h9.814v5.104h0.131c2.094-3.86,4.842-5.889,9.16-5.889c1.112,0,2.355,0.065,3.271,0.327v8.964
	c-1.374-0.393-2.748-0.654-4.188-0.654c-7.459,0-8.375,4.318-8.375,10.665v13.282h-9.814V184.819z"/>
<path d="M96.413,204.251H80.317V196.4h16.096V204.251z"/>
<rect x="-40" y="169.446" width="11" height="11"/>
<rect x="-26" y="169.446" width="11" height="11"/>
<g>
	<path fill="#FFFFFF" d="M-45.213,69.07h-9.422v-4.318h-0.131c-1.309,2.486-4.516,5.104-9.291,5.104
		c-9.945,0-11.777-6.543-11.777-15.049V37.271h9.814v15.572c0,3.664,0.064,8.375,5.104,8.375c5.104,0,5.889-3.991,5.889-8.113
		V37.271h9.814V69.07z"/>
	<rect x="-72" y="24.446" fill="#FFFFFF" width="9" height="9"/>
	<rect x="-58" y="24.446" fill="#FFFFFF" width="9" height="9"/>
</g>
<g>
	<circle fill="#FE4A0D" cx="46.5" cy="46.5" r="40.5"/>
	<circle fill="none" stroke="#FE4A0D" stroke-miterlimit="10" cx="46.5" cy="46.5" r="46"/>
	<g>
		<path fill="#FFFFFF" d="M63.135,56.523c0,9.378-5.728,16.341-16.733,16.341c-11.062,0-16.79-6.963-16.79-16.341V32.097h8.76v24.09
			c0,4.885,3.369,8.591,8.03,8.591c4.604,0,7.974-3.706,7.974-8.591v-24.09h8.76V56.523z M35.845,24.742
			c0-2.415,2.077-4.605,4.548-4.605c2.584,0,4.886,1.91,4.886,4.605s-2.021,4.828-4.772,4.828
			C37.866,29.57,35.845,27.324,35.845,24.742z M47.524,24.742c0-2.415,2.077-4.605,4.548-4.605c2.584,0,4.886,1.91,4.886,4.605
			s-2.021,4.828-4.772,4.828C49.546,29.57,47.524,27.324,47.524,24.742z"/>
	</g>
</g>
</svg>
